<?xml version="1.0" ?><!DOCTYPE svg  PUBLIC '-//W3C//DTD SVG 1.1//EN'  'http://www.w3.org/Graphics/SVG/1.1/DTD/svg11.dtd'><svg height="43.3492mm" style="shape-rendering:geometricPrecision; text-rendering:geometricPrecision; image-rendering:optimizeQuality; fill-rule:evenodd; clip-rule:evenodd" version="1.1" viewBox="0 0 306 306" width="43.3492mm" xml:space="preserve" xmlns="http://www.w3.org/2000/svg" xmlns:xlink="http://www.w3.org/1999/xlink"><defs><style type="text/css">
   <![CDATA[
    .fil2 {fill:#CFA705}
    .fil0 {fill:#FFCE07}
    .fil1 {fill:white}
   ]]>
  </style></defs><g id="Layer_x0020_1"><g id="_444246776"><rect class="fil0" height="306" rx="33" ry="33" width="306"/><path class="fil1" d="M140 51c-1,0 -5,1 -7,2 -10,3 -15,8 -18,9l-11 12c-1,1 -2,3 -3,4 0,1 -1,2 -2,4 0,1 -1,2 -1,3 -1,1 -3,7 -3,8 0,1 0,2 -1,3l0 1c0,0 0,1 0,1 0,1 -1,2 -1,4 0,0 0,1 0,2l-1 1c1,2 0,11 0,13l1 5 0 5c2,6 3,11 -6,8 -6,-2 -6,-4 -14,-3 -1,1 -3,1 -3,2 -1,1 -2,1 -3,2 -2,3 -1,5 0,8 0,1 2,3 2,4 3,0 -2,0 6,1 5,1 14,4 16,9 1,0 2,4 2,7l-1 2c0,0 0,0 0,0 0,2 -2,6 -3,7 0,1 -3,3 -4,5 -1,1 -1,1 -2,2 -1,1 -1,2 -2,3 -1,2 -8,9 -10,10 0,1 -5,4 -7,5 -3,2 -5,2 -9,4 -4,1 -16,4 -11,10l1 1 6 3c8,3 15,4 23,6l0 5 0 0c1,4 2,7 6,9 4,1 8,-1 12,-2 4,-2 8,-2 12,0 1,0 8,4 9,5 1,0 10,6 12,7 7,4 19,9 28,9 2,0 6,-1 8,-1 2,-1 6,-2 8,-2 1,-1 3,-2 5,-2 1,-1 3,-2 5,-3 3,-1 13,-8 14,-8 1,-1 4,-2 5,-3 15,-9 19,2 28,0 5,-2 5,-5 6,-9l0 0 0 -5c9,-2 19,-3 27,-8 0,0 1,0 1,0l2 -1 1 -2c2,-3 -1,-5 -3,-6 -2,-1 -6,-3 -9,-3 -4,-2 -6,-2 -9,-4 -2,-1 -6,-4 -7,-5 -2,-1 -4,-4 -5,-5 -1,-1 -4,-4 -5,-5 -1,-1 -1,-2 -2,-3 -1,-1 -1,-1 -2,-2 -1,-2 -3,-4 -4,-5 -1,-1 -3,-5 -3,-7l0 -1c-1,0 -1,-1 -1,-1 0,-2 0,-4 1,-6 0,-1 1,-1 1,-1 3,-5 11,-8 16,-9 3,0 3,0 5,-1 1,0 0,0 1,0 0,-1 2,-3 3,-4 1,-3 1,-5 -1,-8 -1,-1 -2,-1 -3,-2 0,-1 -2,-1 -2,-2 -9,-1 -8,0 -15,3 -2,0 -6,2 -7,0 -1,-1 0,-7 1,-7l0 -6 1 -5c0,-2 0,-11 0,-13l-1 -1c0,0 0,0 0,-1 0,0 0,-1 0,-1 0,-2 0,-3 0,-4 -1,-1 -1,-4 -1,-5 -1,-1 -2,-6 -3,-8l-3 -5c-1,-1 -1,-1 -1,-2 -1,-1 -2,-3 -2,-4 -1,0 -3,-2 -3,-3 -1,-1 -2,-2 -3,-3l-6 -6c0,0 0,0 0,0 -1,0 -1,0 -2,-1 -3,-2 -6,-4 -10,-6 -2,-1 -4,-2 -6,-2 -2,-1 -6,-2 -7,-2 -4,-1 -8,-2 -13,-2 -5,0 -8,1 -13,2z"/><path class="fil2" d="M251 204c36,10 -15,19 -19,20 0,5 1,12 -6,14 -9,2 -13,-9 -28,0 -1,1 -4,2 -5,3 -1,0 -11,7 -14,8l-10 5c-2,0 -6,1 -8,2 -23,5 -43,-14 -48,-15 -1,-1 -8,-5 -9,-5 -14,-5 -29,14 -30,-12 -8,-2 -15,-3 -23,-6 0,0 0,0 0,0 16,16 75,76 88,88l134 0 33 -33 0 -94c-15,-17 -71,-72 -101,-101 0,1 0,1 1,2l6 13c0,0 4,21 1,36 -5,18 11,0 21,4 12,6 4,15 3,16l-6 1c-28,6 -15,24 -14,25 1,1 3,3 4,5 9,10 16,19 30,24z"/></g></g></svg>